<svg width="822" height="514" viewBox="0 0 822 514" fill="none" xmlns="http://www.w3.org/2000/svg">
<path d="M388.707 42.2156C388.707 38.7828 391.493 36 394.93 36H437.568C441.004 36 443.79 38.7828 443.79 42.2156V312.596C443.79 316.028 441.004 318.811 437.568 318.811H394.93C391.493 318.811 388.707 316.028 388.707 312.596V42.2156Z" fill="url(#paint0_linear_4096_23760)"/>
<path d="M307.185 115.249C307.185 111.817 309.971 109.034 313.407 109.034H356.045C359.482 109.034 362.268 111.817 362.268 115.249V313.001C362.268 316.434 359.482 319.216 356.045 319.216H313.407C309.971 319.216 307.185 316.434 307.185 313.001V115.249Z" fill="url(#paint1_linear_4096_23760)"/>
<path d="M225.662 197.606C225.662 194.174 228.448 191.391 231.885 191.391H274.523C277.959 191.391 280.745 194.174 280.745 197.606V312.825C280.745 316.258 277.959 319.041 274.523 319.041H231.885C228.448 319.041 225.662 316.258 225.662 312.825V197.606Z" fill="url(#paint2_linear_4096_23760)"/>
<path d="M144.013 242.67C144.013 239.237 146.799 236.454 150.236 236.454H192.238C195.674 236.454 198.46 239.237 198.46 242.67V312.596C198.46 316.028 195.674 318.811 192.238 318.811H150.236C146.799 318.811 144.013 316.028 144.013 312.596V242.67Z" fill="url(#paint3_linear_4096_23760)"/>
<path d="M63.1201 293.949C63.1201 290.516 65.906 287.733 69.3426 287.733H111.345C114.781 287.733 117.567 290.516 117.567 293.949V312.596C117.567 316.028 114.781 318.811 111.345 318.811H69.3426C65.906 318.811 63.1201 316.028 63.1201 312.596V293.949Z" fill="url(#paint4_linear_4096_23760)"/>
<path d="M470.23 149.435C470.23 146.002 473.016 143.219 476.452 143.219H519.09C522.527 143.219 525.312 146.002 525.312 149.435V311.973C525.312 315.405 522.527 318.188 519.09 318.188H476.452C473.016 318.188 470.23 315.405 470.23 311.973V149.435Z" fill="url(#paint5_linear_4096_23760)"/>
<path d="M551.752 213.145C551.752 209.713 554.538 206.93 557.975 206.93H600.612C604.049 206.93 606.835 209.713 606.835 213.145V311.858C606.835 315.291 604.049 318.074 600.612 318.074H557.975C554.538 318.074 551.752 315.291 551.752 311.858V213.145Z" fill="url(#paint6_linear_4096_23760)"/>
<path d="M627.815 264.424C627.815 260.992 630.601 258.209 634.037 258.209H676.039C679.476 258.209 682.262 260.992 682.262 264.424V312.596C682.262 316.028 679.476 318.811 676.039 318.811H634.037C630.601 318.811 627.815 316.028 627.815 312.596V264.424Z" fill="url(#paint7_linear_4096_23760)"/>
<path d="M702.485 309.488C702.485 306.055 705.271 303.272 708.708 303.272H750.71C754.146 303.272 756.932 306.055 756.932 309.488V312.596C756.932 316.028 754.146 318.811 750.71 318.811H708.708C705.271 318.811 702.485 316.028 702.485 312.596V309.488Z" fill="url(#paint8_linear_4096_23760)"/>
<path d="M726.497 478C712.908 478 702.62 474.797 695.632 468.391C688.644 461.985 685.149 452.522 685.149 440.001V417.143C685.149 404.526 688.644 395.062 695.632 388.753C702.62 382.348 712.908 379.145 726.497 379.145C740.085 379.145 750.374 382.348 757.362 388.753C764.447 395.062 767.99 404.526 767.99 417.143V440.001C767.99 452.522 764.447 461.985 757.362 468.391C750.374 474.797 740.085 478 726.497 478ZM726.497 457.035C732.417 457.035 736.785 455.433 739.6 452.23C742.512 449.027 743.968 444.417 743.968 438.399V418.745C743.968 412.727 742.512 408.117 739.6 404.914C736.785 401.711 732.417 400.109 726.497 400.109C720.673 400.109 716.306 401.711 713.394 404.914C710.579 408.117 709.172 412.727 709.172 418.745V438.399C709.172 444.417 710.579 449.027 713.394 452.23C716.306 455.433 720.673 457.035 726.497 457.035Z" fill="black"/>
<path d="M616.672 478C603.764 478 593.669 474.894 586.39 468.682C579.207 462.47 575.616 452.861 575.616 439.855V417.58C575.616 404.38 579.207 394.674 586.39 388.462C593.669 382.25 603.764 379.145 616.672 379.145C626.087 379.145 633.998 380.6 640.404 383.512C646.809 386.424 651.517 390.549 654.526 395.887C657.535 401.129 658.554 407.34 657.583 414.523C657.486 415.105 657.243 415.59 656.855 415.979C656.564 416.367 656.127 416.561 655.545 416.561H635.453C634.192 416.561 633.561 415.833 633.561 414.377C633.658 410.01 632.396 406.515 629.775 403.895C627.155 401.177 622.884 399.818 616.964 399.818C611.528 399.818 607.258 401.323 604.152 404.332C601.143 407.243 599.638 411.951 599.638 418.454V438.691C599.638 445.194 601.143 449.95 604.152 452.958C607.258 455.87 611.528 457.326 616.964 457.326C623.175 457.326 627.543 455.919 630.067 453.104C632.59 450.192 633.755 446.747 633.561 442.767C633.561 441.311 634.192 440.583 635.453 440.583H655.399C656.661 440.583 657.389 441.263 657.583 442.622C658.263 449.804 657.049 456.064 653.943 461.403C650.935 466.644 646.276 470.72 639.967 473.632C633.658 476.544 625.893 478 616.672 478Z" fill="black"/>
<path d="M486.074 476.254C484.716 476.254 484.036 475.574 484.036 474.215V382.931C484.036 381.572 484.716 380.893 486.074 380.893H546.64C547.901 380.893 548.532 381.572 548.532 382.931V399.674C548.532 401.032 547.901 401.712 546.64 401.712H508.058V418.455H543.146C544.407 418.455 545.038 419.134 545.038 420.493V436.071C545.038 437.43 544.407 438.109 543.146 438.109H508.058V455.434H546.64C547.901 455.434 548.532 456.114 548.532 457.473V474.215C548.532 475.574 547.901 476.254 546.64 476.254H486.074Z" fill="black"/>
<path d="M407.754 478C400.572 478 394.117 476.592 388.391 473.778C382.761 470.963 378.345 466.741 375.142 461.111C371.939 455.482 370.338 448.397 370.338 439.855V417.289C370.338 404.477 373.978 394.917 381.257 388.608C388.634 382.299 398.728 379.145 411.54 379.145C421.052 379.145 428.913 380.6 435.125 383.512C441.434 386.424 445.947 390.355 448.665 395.305C451.48 400.255 452.499 405.739 451.722 411.757C451.528 413.115 450.849 413.795 449.684 413.795L429.593 413.649C428.428 413.649 427.846 412.921 427.846 411.465C427.943 409.136 427.457 407.098 426.39 405.351C425.322 403.604 423.575 402.245 421.149 401.274C418.819 400.304 415.713 399.818 411.831 399.818C406.104 399.818 401.737 401.274 398.728 404.186C395.816 407.098 394.36 411.854 394.36 418.454V438.691C394.36 445.291 395.913 450.047 399.019 452.958C402.125 455.87 406.638 457.326 412.559 457.326C417.897 457.326 421.925 456.258 424.643 454.123C427.457 451.891 428.865 448.688 428.865 444.514V440.874H412.85C411.491 440.874 410.812 440.195 410.812 438.836V426.898C410.812 425.539 411.491 424.86 412.85 424.86H449.975C451.237 424.86 451.868 425.539 451.868 426.898V451.211C451.868 454.803 451.917 458.733 452.014 463.004C452.208 467.178 452.644 470.866 453.324 474.069C453.518 474.748 453.372 475.282 452.887 475.67C452.499 476.059 452.014 476.253 451.431 476.253H435.416C434.834 476.253 434.397 476.107 434.106 475.816C433.815 475.525 433.572 475.039 433.378 474.36C433.087 473.292 432.893 471.885 432.796 470.138C432.699 468.391 432.602 466.838 432.505 465.479H432.213C430.855 467.809 429.059 469.944 426.827 471.885C424.691 473.729 422.071 475.185 418.965 476.253C415.859 477.417 412.122 478 407.754 478Z" fill="black"/>
<path d="M263.592 476.254C262.233 476.254 261.554 475.574 261.554 474.215V382.931C261.554 381.572 262.233 380.893 263.592 380.893H297.806C313.141 380.893 324.497 384.435 331.873 391.521C339.25 398.509 342.938 408.894 342.938 422.677V433.305C342.938 447.476 339.25 458.201 331.873 465.48C324.497 472.663 313.141 476.254 297.806 476.254H263.592ZM285.576 455.726H296.204C304.066 455.726 309.792 453.736 313.384 449.756C317.072 445.68 318.916 439.905 318.916 432.431V423.55C318.916 416.465 317.072 411.03 313.384 407.244C309.792 403.362 304.066 401.421 296.204 401.421H285.576V455.726Z" fill="black"/>
<path d="M169.126 476.254C167.767 476.254 167.088 475.574 167.088 474.215V382.931C167.088 381.572 167.767 380.893 169.126 380.893H229.691C230.953 380.893 231.584 381.572 231.584 382.931V399.674C231.584 401.032 230.953 401.712 229.691 401.712H191.11V418.455H226.197C227.459 418.455 228.09 419.134 228.09 420.493V436.071C228.09 437.43 227.459 438.109 226.197 438.109H191.11V455.434H229.691C230.953 455.434 231.584 456.114 231.584 457.473V474.215C231.584 475.574 230.953 476.254 229.691 476.254H169.126Z" fill="black"/>
<path d="M56.0383 476.254C54.6794 476.254 54 475.574 54 474.215V382.931C54 381.572 54.6794 380.893 56.0383 380.893H76.1296C77.3914 380.893 78.0223 381.572 78.0223 382.931V418.018H111.362V382.931C111.362 381.572 112.042 380.893 113.401 380.893H133.346C134.705 380.893 135.385 381.572 135.385 382.931V474.215C135.385 475.574 134.705 476.254 133.346 476.254H113.401C112.042 476.254 111.362 475.574 111.362 474.215V438.692H78.0223V474.215C78.0223 475.574 77.3914 476.254 76.1296 476.254H56.0383Z" fill="black"/>
<defs>
<linearGradient id="paint0_linear_4096_23760" x1="795.045" y1="289.287" x2="-10.1916" y2="310.913" gradientUnits="userSpaceOnUse">
<stop stop-color="#2478FF" stop-opacity="0"/>
<stop offset="0.5" stop-color="#2478FF"/>
<stop offset="1" stop-color="#2478FF" stop-opacity="0"/>
</linearGradient>
<linearGradient id="paint1_linear_4096_23760" x1="795.045" y1="289.287" x2="-10.1916" y2="310.913" gradientUnits="userSpaceOnUse">
<stop stop-color="#2478FF" stop-opacity="0"/>
<stop offset="0.5" stop-color="#2478FF"/>
<stop offset="1" stop-color="#2478FF" stop-opacity="0"/>
</linearGradient>
<linearGradient id="paint2_linear_4096_23760" x1="795.045" y1="289.287" x2="-10.1916" y2="310.913" gradientUnits="userSpaceOnUse">
<stop stop-color="#2478FF" stop-opacity="0"/>
<stop offset="0.5" stop-color="#2478FF"/>
<stop offset="1" stop-color="#2478FF" stop-opacity="0"/>
</linearGradient>
<linearGradient id="paint3_linear_4096_23760" x1="795.045" y1="289.287" x2="-10.1916" y2="310.913" gradientUnits="userSpaceOnUse">
<stop stop-color="#2478FF" stop-opacity="0"/>
<stop offset="0.5" stop-color="#2478FF"/>
<stop offset="1" stop-color="#2478FF" stop-opacity="0"/>
</linearGradient>
<linearGradient id="paint4_linear_4096_23760" x1="795.045" y1="289.287" x2="-10.1916" y2="310.913" gradientUnits="userSpaceOnUse">
<stop stop-color="#2478FF" stop-opacity="0"/>
<stop offset="0.5" stop-color="#2478FF"/>
<stop offset="1" stop-color="#2478FF" stop-opacity="0"/>
</linearGradient>
<linearGradient id="paint5_linear_4096_23760" x1="795.045" y1="289.287" x2="-10.1916" y2="310.913" gradientUnits="userSpaceOnUse">
<stop stop-color="#2478FF" stop-opacity="0"/>
<stop offset="0.5" stop-color="#2478FF"/>
<stop offset="1" stop-color="#2478FF" stop-opacity="0"/>
</linearGradient>
<linearGradient id="paint6_linear_4096_23760" x1="795.045" y1="289.287" x2="-10.1916" y2="310.913" gradientUnits="userSpaceOnUse">
<stop stop-color="#2478FF" stop-opacity="0"/>
<stop offset="0.5" stop-color="#2478FF"/>
<stop offset="1" stop-color="#2478FF" stop-opacity="0"/>
</linearGradient>
<linearGradient id="paint7_linear_4096_23760" x1="795.045" y1="289.287" x2="-10.1916" y2="310.913" gradientUnits="userSpaceOnUse">
<stop stop-color="#2478FF" stop-opacity="0"/>
<stop offset="0.5" stop-color="#2478FF"/>
<stop offset="1" stop-color="#2478FF" stop-opacity="0"/>
</linearGradient>
<linearGradient id="paint8_linear_4096_23760" x1="795.045" y1="289.287" x2="-10.1916" y2="310.913" gradientUnits="userSpaceOnUse">
<stop stop-color="#2478FF" stop-opacity="0"/>
<stop offset="0.5" stop-color="#2478FF"/>
<stop offset="1" stop-color="#2478FF" stop-opacity="0"/>
</linearGradient>
</defs>
</svg>
